<mxfile host="app.diagrams.net" modified="2024-03-09T16:55:29.249Z" agent="Mozilla/5.0 (Macintosh; Intel Mac OS X 10_15_7) AppleWebKit/537.36 (KHTML, like Gecko) Chrome/122.0.0.0 Safari/537.36" etag="dx6QlC9LUiNQCBSZI4v2" version="24.0.3" type="device">
  <diagram name="Page-1" id="fBbY3ZStmGxwYOqWw_gN">
    <mxGraphModel dx="1193" dy="1819" grid="1" gridSize="10" guides="1" tooltips="1" connect="1" arrows="1" fold="1" page="1" pageScale="1" pageWidth="850" pageHeight="1100" math="0" shadow="0">
      <root>
        <mxCell id="0" />
        <mxCell id="1" parent="0" />
        <mxCell id="1hRIMVsdbAmmJLtGQxiH-1" value="HISTORICAL USAGE DATA" style="rounded=0;whiteSpace=wrap;html=1;" vertex="1" parent="1">
          <mxGeometry x="160" y="140" width="120" height="60" as="geometry" />
        </mxCell>
        <mxCell id="1hRIMVsdbAmmJLtGQxiH-2" value="ANALOMY DETECTOR AND FORECASTER" style="rounded=0;whiteSpace=wrap;html=1;" vertex="1" parent="1">
          <mxGeometry x="160" y="320" width="120" height="60" as="geometry" />
        </mxCell>
        <mxCell id="1hRIMVsdbAmmJLtGQxiH-3" value="COMBINED LOCAL ANSWER" style="rounded=0;whiteSpace=wrap;html=1;" vertex="1" parent="1">
          <mxGeometry x="425" y="460" width="120" height="60" as="geometry" />
        </mxCell>
        <mxCell id="1hRIMVsdbAmmJLtGQxiH-4" value="MULTIMODAL LARGE MODEL" style="rounded=0;whiteSpace=wrap;html=1;" vertex="1" parent="1">
          <mxGeometry x="750" y="140" width="120" height="60" as="geometry" />
        </mxCell>
        <mxCell id="1hRIMVsdbAmmJLtGQxiH-5" value="FINETUNED" style="rounded=0;whiteSpace=wrap;html=1;" vertex="1" parent="1">
          <mxGeometry x="400" y="140" width="90" height="60" as="geometry" />
        </mxCell>
        <mxCell id="1hRIMVsdbAmmJLtGQxiH-6" value="RAG" style="rounded=0;whiteSpace=wrap;html=1;" vertex="1" parent="1">
          <mxGeometry x="490" y="140" width="90" height="60" as="geometry" />
        </mxCell>
        <mxCell id="1hRIMVsdbAmmJLtGQxiH-7" value="KB" style="rounded=0;whiteSpace=wrap;html=1;" vertex="1" parent="1">
          <mxGeometry x="580" y="150" width="50" height="40" as="geometry" />
        </mxCell>
        <mxCell id="1hRIMVsdbAmmJLtGQxiH-9" value="" style="endArrow=none;html=1;rounded=0;entryX=0.5;entryY=1;entryDx=0;entryDy=0;" edge="1" parent="1" target="1hRIMVsdbAmmJLtGQxiH-5">
          <mxGeometry width="50" height="50" relative="1" as="geometry">
            <mxPoint x="445" y="270" as="sourcePoint" />
            <mxPoint x="440" y="210" as="targetPoint" />
            <Array as="points">
              <mxPoint x="445" y="240" />
            </Array>
          </mxGeometry>
        </mxCell>
        <mxCell id="1hRIMVsdbAmmJLtGQxiH-10" value="" style="endArrow=none;html=1;rounded=0;entryX=0.5;entryY=1;entryDx=0;entryDy=0;" edge="1" parent="1" target="1hRIMVsdbAmmJLtGQxiH-6">
          <mxGeometry width="50" height="50" relative="1" as="geometry">
            <mxPoint x="535" y="270" as="sourcePoint" />
            <mxPoint x="460" y="310" as="targetPoint" />
            <Array as="points">
              <mxPoint x="535" y="240" />
            </Array>
          </mxGeometry>
        </mxCell>
        <mxCell id="1hRIMVsdbAmmJLtGQxiH-11" value="" style="endArrow=none;html=1;rounded=0;" edge="1" parent="1">
          <mxGeometry width="50" height="50" relative="1" as="geometry">
            <mxPoint x="442.5" y="270" as="sourcePoint" />
            <mxPoint x="540" y="270" as="targetPoint" />
            <Array as="points">
              <mxPoint x="490" y="270" />
            </Array>
          </mxGeometry>
        </mxCell>
        <mxCell id="1hRIMVsdbAmmJLtGQxiH-12" value="" style="endArrow=classic;html=1;rounded=0;entryX=0.5;entryY=0;entryDx=0;entryDy=0;" edge="1" parent="1" target="1hRIMVsdbAmmJLtGQxiH-3">
          <mxGeometry width="50" height="50" relative="1" as="geometry">
            <mxPoint x="485" y="270" as="sourcePoint" />
            <mxPoint x="450" y="300" as="targetPoint" />
          </mxGeometry>
        </mxCell>
        <mxCell id="1hRIMVsdbAmmJLtGQxiH-13" value="" style="endArrow=classic;html=1;rounded=0;entryX=0.5;entryY=0;entryDx=0;entryDy=0;" edge="1" parent="1" target="1hRIMVsdbAmmJLtGQxiH-4">
          <mxGeometry width="50" height="50" relative="1" as="geometry">
            <mxPoint x="810" y="80" as="sourcePoint" />
            <mxPoint x="450" y="160" as="targetPoint" />
          </mxGeometry>
        </mxCell>
        <mxCell id="1hRIMVsdbAmmJLtGQxiH-14" value="ROOM IMAGE" style="text;html=1;align=center;verticalAlign=middle;whiteSpace=wrap;rounded=0;" vertex="1" parent="1">
          <mxGeometry x="760" y="50" width="100" height="30" as="geometry" />
        </mxCell>
        <mxCell id="1hRIMVsdbAmmJLtGQxiH-15" value="FEATURE IMPORTANCE" style="rounded=0;whiteSpace=wrap;html=1;" vertex="1" parent="1">
          <mxGeometry x="70" y="330" width="90" height="40" as="geometry" />
        </mxCell>
        <mxCell id="1hRIMVsdbAmmJLtGQxiH-16" value="" style="endArrow=none;html=1;rounded=0;exitX=0.5;exitY=1;exitDx=0;exitDy=0;entryX=0.5;entryY=0;entryDx=0;entryDy=0;" edge="1" parent="1" source="1hRIMVsdbAmmJLtGQxiH-2" target="1hRIMVsdbAmmJLtGQxiH-17">
          <mxGeometry width="50" height="50" relative="1" as="geometry">
            <mxPoint x="400" y="420" as="sourcePoint" />
            <mxPoint x="220" y="440" as="targetPoint" />
          </mxGeometry>
        </mxCell>
        <mxCell id="1hRIMVsdbAmmJLtGQxiH-17" value="EXAMPLE: PROBLEM IN THERMOSTAT" style="rounded=0;whiteSpace=wrap;html=1;" vertex="1" parent="1">
          <mxGeometry x="160" y="460" width="120" height="60" as="geometry" />
        </mxCell>
        <mxCell id="1hRIMVsdbAmmJLtGQxiH-18" value="" style="endArrow=none;html=1;rounded=0;" edge="1" parent="1">
          <mxGeometry width="50" height="50" relative="1" as="geometry">
            <mxPoint x="220" y="424.5" as="sourcePoint" />
            <mxPoint x="120" y="424.5" as="targetPoint" />
          </mxGeometry>
        </mxCell>
        <mxCell id="1hRIMVsdbAmmJLtGQxiH-19" value="LLM" style="rhombus;whiteSpace=wrap;html=1;" vertex="1" parent="1">
          <mxGeometry x="40" y="390" width="80" height="70" as="geometry" />
        </mxCell>
        <mxCell id="1hRIMVsdbAmmJLtGQxiH-21" value="" style="endArrow=classic;html=1;rounded=0;entryX=0.5;entryY=0;entryDx=0;entryDy=0;exitX=0.5;exitY=1;exitDx=0;exitDy=0;" edge="1" parent="1" source="1hRIMVsdbAmmJLtGQxiH-1" target="1hRIMVsdbAmmJLtGQxiH-2">
          <mxGeometry width="50" height="50" relative="1" as="geometry">
            <mxPoint x="495" y="280" as="sourcePoint" />
            <mxPoint x="495" y="330" as="targetPoint" />
          </mxGeometry>
        </mxCell>
        <mxCell id="1hRIMVsdbAmmJLtGQxiH-22" value="" style="endArrow=classic;html=1;rounded=0;" edge="1" parent="1">
          <mxGeometry width="50" height="50" relative="1" as="geometry">
            <mxPoint x="450" y="70" as="sourcePoint" />
            <mxPoint x="450" y="140" as="targetPoint" />
          </mxGeometry>
        </mxCell>
        <mxCell id="1hRIMVsdbAmmJLtGQxiH-23" value="" style="endArrow=classic;html=1;rounded=0;" edge="1" parent="1">
          <mxGeometry width="50" height="50" relative="1" as="geometry">
            <mxPoint x="535" y="70" as="sourcePoint" />
            <mxPoint x="534.5" y="140" as="targetPoint" />
          </mxGeometry>
        </mxCell>
        <mxCell id="1hRIMVsdbAmmJLtGQxiH-24" value="" style="endArrow=none;html=1;rounded=0;" edge="1" parent="1">
          <mxGeometry width="50" height="50" relative="1" as="geometry">
            <mxPoint x="450" y="70" as="sourcePoint" />
            <mxPoint x="540" y="70" as="targetPoint" />
            <Array as="points" />
          </mxGeometry>
        </mxCell>
        <mxCell id="1hRIMVsdbAmmJLtGQxiH-25" value="" style="endArrow=none;html=1;rounded=0;" edge="1" parent="1">
          <mxGeometry width="50" height="50" relative="1" as="geometry">
            <mxPoint x="490" y="70" as="sourcePoint" />
            <mxPoint x="490" y="-10" as="targetPoint" />
          </mxGeometry>
        </mxCell>
        <mxCell id="1hRIMVsdbAmmJLtGQxiH-26" value="USER QUERY" style="text;html=1;align=center;verticalAlign=middle;whiteSpace=wrap;rounded=0;" vertex="1" parent="1">
          <mxGeometry x="445" y="-40" width="100" height="30" as="geometry" />
        </mxCell>
        <mxCell id="1hRIMVsdbAmmJLtGQxiH-27" value="&lt;font style=&quot;font-size: 29px;&quot;&gt;SmartHome Savant: Optimizing Living Spaces with LLM Innovation&lt;/font&gt;" style="rounded=0;whiteSpace=wrap;html=1;" vertex="1" parent="1">
          <mxGeometry x="30" y="550" width="960" height="60" as="geometry" />
        </mxCell>
        <mxCell id="1hRIMVsdbAmmJLtGQxiH-28" value="" style="endArrow=classic;html=1;rounded=0;entryX=0.442;entryY=0.017;entryDx=0;entryDy=0;entryPerimeter=0;" edge="1" parent="1" target="1hRIMVsdbAmmJLtGQxiH-29">
          <mxGeometry width="50" height="50" relative="1" as="geometry">
            <mxPoint x="809.5" y="200" as="sourcePoint" />
            <mxPoint x="809.5" y="260" as="targetPoint" />
          </mxGeometry>
        </mxCell>
        <mxCell id="1hRIMVsdbAmmJLtGQxiH-29" value="- RECOMMENDATIONS" style="rounded=0;whiteSpace=wrap;html=1;" vertex="1" parent="1">
          <mxGeometry x="740" y="460" width="170" height="60" as="geometry" />
        </mxCell>
      </root>
    </mxGraphModel>
  </diagram>
</mxfile>
